<mxfile host="65bd71144e">
    <diagram id="lHtWl0A6xUiiPNq3U4mr" name="Page-1">
        <mxGraphModel dx="1834" dy="724" grid="1" gridSize="10" guides="1" tooltips="1" connect="1" arrows="1" fold="1" page="1" pageScale="1" pageWidth="1169" pageHeight="827" background="#FFFFFF" math="0" shadow="0">
            <root>
                <mxCell id="0"/>
                <mxCell id="1" parent="0"/>
                <mxCell id="2" value="" style="rounded=1;arcSize=10;strokeColor=#FF3333;fillColor=#dae8fc;strokeWidth=2;fontStyle=1" parent="1" vertex="1">
                    <mxGeometry x="280" y="210" width="720" height="80" as="geometry"/>
                </mxCell>
                <mxCell id="3" value="&lt;span&gt;&lt;font&gt;Bastion&lt;br&gt;Security Group&lt;br&gt;&lt;/font&gt;&lt;/span&gt;" style="text;html=1;align=center;verticalAlign=middle;resizable=0;points=[];autosize=1;strokeColor=none;fillColor=none;fontStyle=1;fontColor=#000000;" parent="1" vertex="1">
                    <mxGeometry x="280" y="230" width="110" height="40" as="geometry"/>
                </mxCell>
                <mxCell id="4" value="" style="rounded=1;arcSize=10;strokeColor=#FF3333;fillColor=#FFCC99;gradientColor=none;strokeWidth=2;fontStyle=1" parent="1" vertex="1">
                    <mxGeometry x="280" y="300" width="720" height="80" as="geometry"/>
                </mxCell>
                <mxCell id="5" value="&lt;span&gt;&lt;font&gt;ALB&lt;br&gt;Security Group&lt;br&gt;&lt;/font&gt;&lt;/span&gt;" style="text;html=1;align=center;verticalAlign=middle;resizable=0;points=[];autosize=1;strokeColor=none;fillColor=none;fontStyle=1;fontColor=#000000;" parent="1" vertex="1">
                    <mxGeometry x="280" y="320" width="110" height="40" as="geometry"/>
                </mxCell>
                <mxCell id="6" value="" style="rounded=1;arcSize=10;strokeColor=#FF3333;fillColor=#e1d5e7;strokeWidth=2;fontStyle=1" parent="1" vertex="1">
                    <mxGeometry x="280" y="390" width="720" height="80" as="geometry"/>
                </mxCell>
                <mxCell id="7" value="&lt;span&gt;&lt;font&gt;App servers&lt;br&gt;Security Group&lt;br&gt;&lt;/font&gt;&lt;/span&gt;" style="text;html=1;align=center;verticalAlign=middle;resizable=0;points=[];autosize=1;strokeColor=none;fillColor=none;fontStyle=1;fontColor=#000000;" parent="1" vertex="1">
                    <mxGeometry x="280" y="410" width="110" height="40" as="geometry"/>
                </mxCell>
                <mxCell id="9" value="" style="outlineConnect=0;gradientColor=none;html=1;whiteSpace=wrap;fontSize=12;fontStyle=1;strokeColor=#858B94;fillColor=#E6E6E6;verticalAlign=top;align=center;fontColor=#858B94;spacingTop=3;strokeWidth=2;" parent="1" vertex="1">
                    <mxGeometry x="280" y="120" width="720" height="80" as="geometry"/>
                </mxCell>
                <mxCell id="8" value="Internet" style="sketch=0;outlineConnect=0;fontColor=#232F3E;gradientColor=none;strokeColor=#232F3E;fillColor=#E6E6E6;dashed=0;verticalLabelPosition=bottom;verticalAlign=top;align=center;html=1;fontSize=14;fontStyle=1;aspect=fixed;shape=mxgraph.aws4.resourceIcon;resIcon=mxgraph.aws4.internet;spacingTop=-15;" parent="1" vertex="1">
                    <mxGeometry x="300" y="126" width="60" height="60" as="geometry"/>
                </mxCell>
                <mxCell id="10" value="&lt;span&gt;&lt;font color=&quot;#000000&quot; style=&quot;font-size: 12px;&quot;&gt;SSH&lt;/font&gt;&lt;/span&gt;" style="html=1;shadow=0;dashed=0;align=center;verticalAlign=middle;shape=mxgraph.arrows2.arrow;dy=0.4;dx=28;direction=south;notch=0;strokeWidth=2;fontSize=14;fontColor=#ff0000;fontStyle=1" parent="1" vertex="1">
                    <mxGeometry x="384" y="150" width="70" height="120" as="geometry"/>
                </mxCell>
                <mxCell id="11" value="&lt;span&gt;&lt;font color=&quot;#000000&quot; style=&quot;font-size: 12px;&quot;&gt;HTTP&lt;/font&gt;&lt;/span&gt;" style="html=1;shadow=0;dashed=0;align=center;verticalAlign=middle;shape=mxgraph.arrows2.arrow;dy=0.4;dx=28;direction=south;notch=0;strokeWidth=2;fontSize=14;fontColor=#ff0000;fontStyle=1" parent="1" vertex="1">
                    <mxGeometry x="580" y="145" width="70" height="210" as="geometry"/>
                </mxCell>
                <mxCell id="12" value="&lt;span&gt;&lt;font color=&quot;#000000&quot; style=&quot;font-size: 12px;&quot;&gt;HTTP&lt;/font&gt;&lt;/span&gt;" style="html=1;shadow=0;dashed=0;align=center;verticalAlign=middle;shape=mxgraph.arrows2.arrow;dy=0.4;dx=28;direction=south;notch=0;strokeWidth=2;fontSize=14;fontColor=#ff0000;fontStyle=1" parent="1" vertex="1">
                    <mxGeometry x="625" y="341" width="70" height="109" as="geometry"/>
                </mxCell>
                <mxCell id="14" value="ALL" style="html=1;shadow=0;dashed=0;align=center;verticalAlign=middle;shape=mxgraph.arrows2.arrow;dy=0.43;dx=39;direction=north;notch=0;strokeWidth=2;fontSize=12;fontColor=#000000;fontStyle=1" parent="1" vertex="1">
                    <mxGeometry x="810" y="140" width="70" height="300" as="geometry"/>
                </mxCell>
                <mxCell id="15" value="ALL" style="html=1;shadow=0;dashed=0;align=center;verticalAlign=middle;shape=mxgraph.arrows2.arrow;dy=0.43;dx=39;direction=north;notch=0;strokeWidth=2;fontSize=12;fontColor=#000000;fontStyle=1" parent="1" vertex="1">
                    <mxGeometry x="675" y="140" width="70" height="200" as="geometry"/>
                </mxCell>
                <mxCell id="16" value="ALL" style="html=1;shadow=0;dashed=0;align=center;verticalAlign=middle;shape=mxgraph.arrows2.arrow;dy=0.43;dx=39;direction=north;notch=0;strokeWidth=2;fontSize=12;fontColor=#000000;fontStyle=1" parent="1" vertex="1">
                    <mxGeometry x="450" y="130" width="70" height="120" as="geometry"/>
                </mxCell>
                <mxCell id="17" value="&lt;span&gt;&lt;font color=&quot;#000000&quot; style=&quot;font-size: 12px;&quot;&gt;SSH&lt;br&gt;&lt;/font&gt;&lt;/span&gt;" style="html=1;shadow=0;dashed=0;align=center;verticalAlign=middle;shape=mxgraph.arrows2.arrow;dy=0.4;dx=28;direction=south;notch=0;strokeWidth=2;fontSize=14;fontColor=#ff0000;fontStyle=1" parent="1" vertex="1">
                    <mxGeometry x="430" y="260" width="70" height="180" as="geometry"/>
                </mxCell>
                <mxCell id="18" value="" style="rounded=1;arcSize=10;strokeColor=#FF3333;fillColor=#CCFFCC;gradientColor=none;strokeWidth=2;fontStyle=1" vertex="1" parent="1">
                    <mxGeometry x="280" y="480" width="720" height="80" as="geometry"/>
                </mxCell>
                <mxCell id="19" value="" style="rounded=1;arcSize=10;strokeColor=#FF3333;fillColor=#f8cecc;strokeWidth=2;fontStyle=1" vertex="1" parent="1">
                    <mxGeometry x="280" y="570" width="720" height="80" as="geometry"/>
                </mxCell>
                <mxCell id="20" value="&lt;span&gt;&lt;font&gt;SSM endpoints&lt;br&gt;Security Group&lt;br&gt;&lt;/font&gt;&lt;/span&gt;" style="text;html=1;align=center;verticalAlign=middle;resizable=0;points=[];autosize=1;strokeColor=none;fillColor=none;fontStyle=1;fontColor=#000000;" vertex="1" parent="1">
                    <mxGeometry x="280" y="500" width="110" height="40" as="geometry"/>
                </mxCell>
                <mxCell id="21" value="&lt;span&gt;&lt;font&gt;DB servers&lt;br&gt;Security Group&lt;br&gt;&lt;/font&gt;&lt;/span&gt;" style="text;html=1;align=center;verticalAlign=middle;resizable=0;points=[];autosize=1;strokeColor=none;fillColor=none;fontStyle=1;fontColor=#000000;" vertex="1" parent="1">
                    <mxGeometry x="280" y="590" width="110" height="40" as="geometry"/>
                </mxCell>
                <mxCell id="22" value="&lt;span&gt;&lt;font color=&quot;#000000&quot; style=&quot;font-size: 12px;&quot;&gt;SSH&lt;br&gt;&lt;/font&gt;&lt;/span&gt;" style="html=1;shadow=0;dashed=0;align=center;verticalAlign=middle;shape=mxgraph.arrows2.arrow;dy=0.4;dx=28;direction=south;notch=0;strokeWidth=2;fontSize=14;fontColor=#ff0000;fontStyle=1" vertex="1" parent="1">
                    <mxGeometry x="500" y="261" width="70" height="359" as="geometry"/>
                </mxCell>
                <mxCell id="23" value="" style="html=1;shadow=0;dashed=0;align=center;verticalAlign=middle;shape=mxgraph.arrows2.arrow;dy=0.4;dx=28;direction=south;notch=0;strokeWidth=2;fontSize=14;fontColor=#ff0000;rotation=0;fontStyle=1" vertex="1" parent="1">
                    <mxGeometry x="670" y="441" width="70" height="189" as="geometry"/>
                </mxCell>
                <mxCell id="24" value="&lt;span&gt;&lt;font style=&quot;font-size: 14px;&quot;&gt;PostgreSQL&lt;/font&gt;&lt;/span&gt;" style="text;html=1;align=center;verticalAlign=middle;resizable=0;points=[];autosize=1;strokeColor=none;fillColor=none;rotation=270;fontStyle=1" vertex="1" parent="1">
                    <mxGeometry x="653" y="520.5" width="100" height="30" as="geometry"/>
                </mxCell>
                <mxCell id="25" value="&lt;span&gt;&lt;font color=&quot;#000000&quot; style=&quot;font-size: 12px;&quot;&gt;HTTPS&lt;/font&gt;&lt;/span&gt;" style="html=1;shadow=0;dashed=0;align=center;verticalAlign=middle;shape=mxgraph.arrows2.arrow;dy=0.4;dx=28;direction=south;notch=0;strokeWidth=2;fontSize=14;fontColor=#ff0000;fontStyle=1" vertex="1" parent="1">
                    <mxGeometry x="753" y="440" width="77" height="90" as="geometry"/>
                </mxCell>
                <mxCell id="26" value="HTTPS" style="html=1;shadow=0;dashed=0;align=center;verticalAlign=middle;shape=mxgraph.arrows2.arrow;dy=0.43;dx=39;direction=north;notch=0;strokeWidth=2;fontSize=12;fontColor=#000000;fontStyle=1" vertex="1" parent="1">
                    <mxGeometry x="820" y="510" width="80" height="100" as="geometry"/>
                </mxCell>
                <mxCell id="27" value="ALL" style="html=1;shadow=0;dashed=0;align=center;verticalAlign=middle;shape=mxgraph.arrows2.arrow;dy=0.43;dx=39;direction=north;notch=0;strokeWidth=2;fontSize=12;fontColor=#000000;fontStyle=1" vertex="1" parent="1">
                    <mxGeometry x="900" y="140" width="70" height="380.5" as="geometry"/>
                </mxCell>
            </root>
        </mxGraphModel>
    </diagram>
</mxfile>
